<svg width="1000" height="1000" viewBox="0 0 1000 1000" fill="none" xmlns="http://www.w3.org/2000/svg">
<path d="M387.031 919.364C387.031 936.284 373.315 950 356.395 950H210.031C183.522 950 162.031 928.51 162.031 902L162.031 633.455C162.031 622.158 171.189 613 182.486 613C295.453 613 387.031 704.578 387.031 817.545V919.364Z" fill="url(#paint0_linear_305_3)"/>
<path d="M612.969 80.6364C612.969 63.7164 626.685 50 643.605 50H789.969C816.478 50 837.969 71.4903 837.969 98V366.545C837.969 377.842 828.811 387 817.514 387C704.547 387 612.969 295.422 612.969 182.455V80.6364Z" fill="url(#paint1_linear_305_3)"/>
<path d="M162.094 87.5C162.094 66.7893 178.883 50 199.594 50C303.147 50 387.094 133.947 387.094 237.5V387.5H162.094V87.5Z" fill="url(#paint2_linear_305_3)"/>
<path d="M612.094 612.5H837.094V912.5C837.094 933.211 820.304 950 799.594 950C696.04 950 612.094 866.053 612.094 762.5V612.5Z" fill="url(#paint3_linear_305_3)"/>
<path d="M162.094 387.5H387.094H621.094C740.387 387.5 837.094 484.206 837.094 603.5V612.5H612.094H378.094C258.8 612.5 162.094 515.794 162.094 396.5V387.5Z" fill="url(#paint4_linear_305_3)"/>
<defs>
<linearGradient id="paint0_linear_305_3" x1="162.022" y1="612.986" x2="387.022" y2="949.986" gradientUnits="userSpaceOnUse">
<stop stop-color="#667085"/>
<stop offset="1" stop-color="#98A2B3"/>
</linearGradient>
<linearGradient id="paint1_linear_305_3" x1="613.031" y1="50" x2="838.031" y2="387" gradientUnits="userSpaceOnUse">
<stop stop-color="#7F56D9"/>
<stop offset="1" stop-color="#9E77ED"/>
</linearGradient>
<linearGradient id="paint2_linear_305_3" x1="162.031" y1="50" x2="1115.03" y2="1269" gradientUnits="userSpaceOnUse">
<stop offset="0.202926" stop-color="#7A5AF8"/>
<stop offset="1" stop-color="#9B8AFB"/>
</linearGradient>
<linearGradient id="paint3_linear_305_3" x1="162.031" y1="50" x2="1115.03" y2="1269" gradientUnits="userSpaceOnUse">
<stop offset="0.202926" stop-color="#7A5AF8"/>
<stop offset="1" stop-color="#9B8AFB"/>
</linearGradient>
<linearGradient id="paint4_linear_305_3" x1="162.031" y1="50" x2="1115.03" y2="1269" gradientUnits="userSpaceOnUse">
<stop offset="0.202926" stop-color="#7A5AF8"/>
<stop offset="1" stop-color="#9B8AFB"/>
</linearGradient>
</defs>
</svg>
