<?xml version="1.0" standalone="no"?>
<!DOCTYPE svg PUBLIC "-//W3C//DTD SVG 20010904//EN"
 "http://www.w3.org/TR/2001/REC-SVG-20010904/DTD/svg10.dtd">
<svg version="1.0" xmlns="http://www.w3.org/2000/svg"
 width="1000.000000pt" height="1000.000000pt" viewBox="0 0 1000.000000 1000.000000"
 preserveAspectRatio="xMidYMid meet">
<metadata>
Created by potrace 1.14, written by Peter Selinger 2001-2017
</metadata>
<g transform="translate(0.000000,1000.000000) scale(0.100000,-0.100000)"
fill="#000000" stroke="none">
<path d="M1929 9496 c-2 -3 -16 -7 -29 -9 -41 -8 -82 -29 -133 -69 -60 -46
-81 -72 -115 -145 l-27 -58 -1 -1670 c-1 -1576 0 -1677 17 -1800 32 -223 96
-443 187 -635 53 -112 175 -311 239 -391 104 -129 205 -235 293 -309 29 -25
58 -50 64 -56 20 -18 160 -119 201 -145 111 -67 243 -135 340 -173 39 -16 79
-32 90 -36 131 -53 413 -111 590 -120 28 -2 596 -4 1262 -4 1206 -1 1213 -1
1213 -21 0 -11 2 -396 4 -855 2 -459 6 -851 10 -870 3 -19 13 -69 21 -110 8
-41 17 -85 19 -97 11 -56 89 -271 128 -350 119 -246 290 -468 483 -628 33 -28
68 -58 79 -67 11 -10 23 -18 26 -18 4 0 17 -9 29 -19 46 -40 232 -144 338
-188 147 -62 272 -99 438 -129 64 -12 83 -13 221 -19 102 -4 142 -2 184 11
125 37 218 131 255 256 14 50 15 222 12 1744 -1 929 -5 1698 -9 1709 -3 11 -9
43 -12 70 -4 28 -9 57 -11 65 -2 8 -6 26 -9 40 -67 379 -294 798 -593 1095
-359 357 -776 554 -1313 621 -30 4 -614 8 -1297 8 -683 1 -1244 4 -1247 7 -3
3 -6 374 -7 825 -1 848 -3 895 -44 1084 -60 273 -218 589 -400 800 -292 338
-688 561 -1125 635 -90 15 -361 30 -371 21z"/>
<path d="M6335 9482 c-75 -26 -140 -85 -177 -161 l-23 -46 0 -635 c0 -643 2
-709 29 -835 8 -39 17 -83 20 -98 27 -150 158 -466 251 -605 19 -30 35 -56 35
-58 0 -7 118 -162 155 -203 57 -65 191 -196 241 -236 27 -22 51 -43 54 -47 18
-23 252 -168 353 -217 178 -88 441 -170 597 -187 25 -3 51 -7 59 -10 8 -3 73
-7 146 -11 119 -5 135 -4 176 15 60 28 86 53 109 104 19 42 20 72 20 1434 0
1529 3 1444 -61 1565 -39 73 -115 149 -189 188 -116 62 -97 61 -960 61 -719
-1 -789 -2 -835 -18z"/>
<path d="M1766 3863 c-46 -13 -96 -57 -121 -106 l-25 -51 1 -1396 c0 -1182 3
-1403 15 -1449 41 -155 153 -276 304 -332 l65 -24 820 0 820 0 48 24 c60 30
122 92 150 151 22 45 22 50 22 680 0 607 -3 689 -26 825 -16 95 -78 316 -109
390 -204 487 -550 861 -1003 1084 -186 92 -441 169 -642 195 -65 9 -298 15
-319 9z"/>
</g>
</svg>
